# xmcd
#
# Track frame offsets:
#	150
#	33437
#	62650
#	83613
#	106374
#	146129
#	169786
#	186081
#	209607
#	225541
#	246783
#	267381
#	286143
#	306423
#
# Disc length: 4363 seconds
#
# Revision: 0
# Processed by: cddbd v1.5.2PL0 Copyright (c) Steve Scherf et al.
# Submitted via: EasyCDDAExtractor 10.0.6.1
#
DISCID=c911090e
DTITLE=Hook Herrera - Puro Mestizo
DYEAR=2003
DGENRE=Blues (Harmonica)
TTITLE0=Dollar Blues
TTITLE1=Blues and Misery
TTITLE2=Mighty GoodM an
TTITLE3=Flamenco soul
TTITLE4=Mr. Taximan
TTITLE5=Heartache
TTITLE6=Marie Marie
TTITLE7=Hippy Walk
TTITLE8=For Wath It`s Worth
TTITLE9=Son House Tribute
TTITLE10=Bo Didley Medley
TTITLE11=Same Old Story
TTITLE12=Prenda Del Alabama
TTITLE13=Mighty Good Man
EXTD=
EXTT0=
EXTT1=
EXTT2=
EXTT3=
EXTT4=
EXTT5=
EXTT6=
EXTT7=
EXTT8=
EXTT9=
EXTT10=
EXTT11=
EXTT12=
EXTT13=
PLAYORDER=
